<svg xmlns="http://www.w3.org/2000/svg" viewBox="0 0 64 80" x="0px" y="0px"><g data-name="10 Chip"><g><path d="M30,20H28a1,1,0,0,1,0-2h2a1,1,0,0,1,0,2Z"/><path d="M30,24H28a1,1,0,0,1,0-2h2a1,1,0,0,1,0,2Z"/><path d="M38,28H26a3,3,0,0,1-3-3V17a3,3,0,0,1,3-3h6a3.743,3.743,0,0,1,2.414,1l2,2H38a3,3,0,0,1,3,3v5A3,3,0,0,1,38,28ZM26,16a1,1,0,0,0-1,1v8a1,1,0,0,0,1,1H38a1,1,0,0,0,1-1V20a1,1,0,0,0-1-1H36a1,1,0,0,1-.707-.293L33,16.414A1.833,1.833,0,0,0,32,16Z"/><path d="M31,13a1,1,0,0,1-1-1V10.414L28.293,8.707A1,1,0,0,1,28,8V4a1,1,0,0,1,2,0V7.586l1.707,1.707A1,1,0,0,1,32,10v2A1,1,0,0,1,31,13Z"/><path d="M33,32a1,1,0,0,1-1-1V30a1,1,0,0,1,2,0v1A1,1,0,0,1,33,32Z"/><path d="M26,37a1,1,0,0,1-1-1V33a1,1,0,0,1,.684-.949L28,31.279V30a1,1,0,0,1,2,0v2a1,1,0,0,1-.684.949L27,33.721V36A1,1,0,0,1,26,37Z"/><path d="M21,20H18.618l-1.724-3.447A1,1,0,0,0,16,16H7a1,1,0,0,0,0,2h8.382l1,2H14a1,1,0,0,0-.832.445L11.465,23H3a1,1,0,0,0,0,2h9a1,1,0,0,0,.832-.445L14.535,22H21a1,1,0,0,0,0-2Z"/><path d="M61,25H49.618l-1-2H50a1,1,0,0,0,.707-.293L52.414,21H59a1,1,0,0,0,0-2H52a1,1,0,0,0-.707.293L49.586,21H43a1,1,0,0,0,0,2h3.382l1.723,3.447A1,1,0,0,0,49,27H61a1,1,0,0,0,0-2Z"/><path d="M35,14a1,1,0,0,1-1-1V9.414L32.293,7.707A1,1,0,0,1,32,7V4a1,1,0,0,1,2,0V6.586l1.707,1.707A1,1,0,0,1,36,9v4A1,1,0,0,1,35,14Z"/><path d="M4.353,22a1,1,0,0,1-.889-1.454q.426-.837.9-1.645a1,1,0,0,1,1.727,1.011q-.444.758-.843,1.542A1,1,0,0,1,4.353,22Z"/><path d="M60.582,24a1,1,0,0,1-.921-.612l-.159-.357a1,1,0,1,1,1.83-.806l.171.385A1,1,0,0,1,60.582,24Z"/><path d="M57.216,18a1,1,0,0,1-.815-.418A30.109,30.109,0,0,0,35.872,5.258a1,1,0,1,1,.256-1.983,32.118,32.118,0,0,1,21.9,13.143A1,1,0,0,1,57.216,18Z"/><path d="M63.326,28.463a1,1,0,0,0-1.958.408,30.1,30.1,0,0,1-.727,15.078,2.987,2.987,0,0,1-2.862,2.107L31,46a3,3,0,0,1-3-3V42c0-5.084,5.832-8,16-8a1,1,0,0,0,0-2c-16.246,0-18,6.993-18,10v1a5.005,5.005,0,0,0,5,5l1,0v2a4,4,0,0,0,4,4h2.42l3.712,6.5A1,1,0,0,0,43,61h6a1,1,0,0,0,.962-1.275L48.326,54H51a4,4,0,0,0,4-4,1,1,0,0,0-2,0,2,2,0,0,1-2,2H47a1,1,0,0,0-.962,1.275L47.674,59H43.58l-3.712-6.5A1,1,0,0,0,39,52H36a2,2,0,0,1-2-2V48.006l23.777.05a4.981,4.981,0,0,0,4.774-3.511,32.112,32.112,0,0,0,.775-16.082Z"/><path d="M24,45a117.53,117.53,0,0,1-13.129-1.008C1.317,42.752,0,38.938,0,35a31.983,31.983,0,0,1,1.131-8.417,1,1,0,1,1,1.929.526A29.951,29.951,0,0,0,2,35c0,2.319,0,5.824,9.129,7.008A118.392,118.392,0,0,0,24,43a1,1,0,0,1,0,2Z"/><path d="M9.222,15a.989.989,0,0,1-.678-.265,1,1,0,0,1-.058-1.413A31.8,31.8,0,0,1,25.807,3.607a1,1,0,0,1,.386,1.962A29.8,29.8,0,0,0,9.957,14.678,1,1,0,0,1,9.222,15Z"/></g></g><text x="0" y="79" fill="#000000" font-size="5px" font-weight="bold" font-family="'Helvetica Neue', Helvetica, Arial-Unicode, Arial, Sans-serif">Created by Berkah Icon</text><text x="0" y="84" fill="#000000" font-size="5px" font-weight="bold" font-family="'Helvetica Neue', Helvetica, Arial-Unicode, Arial, Sans-serif">from the Noun Project</text></svg>